<?xml version="1.0" encoding="iso-8859-1"?>
<!-- Uploaded to: SVG Repo, www.svgrepo.com, Generator: SVG Repo Mixer Tools -->
<!DOCTYPE svg PUBLIC "-//W3C//DTD SVG 1.1//EN" "http://www.w3.org/Graphics/SVG/1.1/DTD/svg11.dtd">
<svg fill="#000000" version="1.1" id="Capa_1" xmlns="http://www.w3.org/2000/svg" xmlns:xlink="http://www.w3.org/1999/xlink" 
	 width="800px" height="800px" viewBox="0 0 539.833 539.833"
	 xml:space="preserve">
<g>
	<path d="M91.652,221.626c0.033,0.084,1.099-0.509,3.258-0.709c2.198-0.271,5.29-0.075,8.87,0.579
		c3.589,0.583,7.656,1.582,11.887,2.292c4.172,0.602,8.783,1.022,11.961-0.845l1.19-0.691l1.008-0.942
		c0.096-0.08,0.535-0.49,0.343-0.28l0.501-0.728c0.296-0.467,0.775-1.045,0.789-1.354c0.656-1.218,1.034-3.463,0.934-5.264
		c-0.163-3.799-1.841-7.538-4.104-9.171c-1.125-0.919-2.366-0.835-3.533-0.588c-1.157,0.416-2.093,1.181-2.863,1.839
		c-1.386,1.457-2.17,2.427-2.17,2.427s0.112-0.285,0.322-0.803c0.243-0.504,0.471-1.349,1.036-2.278
		c0.616-0.905,1.344-2.072,2.819-2.996c1.396-0.826,3.806-1.372,5.804-0.257c1.967,0.938,3.708,2.558,4.879,4.56
		c1.155,1.993,2.179,4.275,2.413,6.837c0.196,2.595,0.374,5.167-1.113,8.182c-0.315,0.826-0.642,1.152-0.957,1.694l-0.483,0.751
		c-0.497,0.714-0.576,0.64-0.889,0.994l-1.575,1.503c-0.583,0.429-1.23,0.793-1.855,1.176c-2.59,1.358-5.486,1.872-8.072,1.788
		c-2.639,0.038-5.033-0.551-7.309-1.036c-4.506-1.157-8.401-2.702-11.721-3.906c-3.323-1.218-6.128-2.119-8.102-2.436
		C92.912,221.547,91.631,221.696,91.652,221.626z M71.387,211.643c0.301,0.64,0.656,1.452,1.218,2.264
		c0.506,0.854,1.234,1.727,2.128,2.576c0.894,0.859,1.948,1.722,3.243,2.38c1.249,0.737,2.759,1.232,4.401,1.456
		c1.668,0.14,3.552-0.14,5.152-1.162c1.582-1.069,2.63-2.693,3.27-4.335c0.329-0.826,0.434-1.676,0.655-2.506
		c0.152-1.045,0.157-1.605,0.201-2.483c-0.049-1.876-0.579-3.757-2.033-5.097c-1.482-1.367-3.675-1.414-5.122-0.732
		c-1.526,0.639-2.562,1.843-3.092,3.043c-0.612,1.176-0.747,2.385-0.738,3.388c-0.07,1.013,0.236,1.857,0.301,2.558
		c0.459,1.344,0.751,2.063,0.751,2.063s-0.086-0.78-0.224-2.138c0.075-0.677-0.063-1.498,0.196-2.38
		c0.166-0.887,0.493-1.862,1.09-2.707c0.544-0.873,1.442-1.597,2.45-1.904c1.003-0.313,2.079-0.107,2.754,0.593
		c0.711,0.7,0.971,1.988,1.026,3.169c-0.032,0.658-0.109,1.671-0.21,2.166c-0.205,0.672-0.296,1.4-0.56,2.021
		c-0.488,1.289-1.195,2.395-2.184,3.104c-1.013,0.635-2.217,0.989-3.498,0.952c-1.26-0.136-2.546-0.351-3.689-0.892
		c-1.16-0.467-2.207-1.092-3.11-1.75c-0.488-0.294-0.87-0.677-1.271-1.004c-0.416-0.312-0.775-0.653-1.081-1.003
		c-0.677-0.654-1.127-1.307-1.529-1.853c-0.406-0.542-0.639-1.055-0.835-1.363c-0.191-0.317-0.287-0.49-0.287-0.49
		s0.051,0.196,0.147,0.551C71.023,210.462,71.072,211.013,71.387,211.643z M147.895,223.255c3.46,3.846,7.974,6.823,12.818,8.251
		c2.639,0.635,5.089,1.013,7.78,0.602c2.663-0.396,5.084-1.914,6.797-3.649c3.402-3.528,5.572-7.248,8.921-9.386
		c3.127-2.245,7.414-2.852,9.754-0.611c2.275,2.184,2.471,5.993,1.815,8.56c-0.777,2.674-3.367,4.186-5.313,3.696
		c-1.979-0.476-2.744-2.324-2.882-3.375c-0.182-1.125-0.156-1.745-0.156-1.745s-0.086,0.611-0.016,1.764
		c0.054,1.064,0.574,3.192,2.896,3.953c2.257,0.751,5.43-0.812,6.588-3.892c0.581-1.512,0.698-3.253,0.581-4.971
		c-0.156-1.806-0.772-3.748-2.273-5.274c-1.496-1.53-3.771-2.24-5.964-2.133c-2.189,0.126-4.369,0.84-6.256,2.072
		c-3.953,2.306-6.644,6.343-9.626,9.367c-1.528,1.484-3.283,2.516-5.323,2.805c-2.002,0.312-4.368-0.089-6.401-0.593
		c-4.387-1.367-8.296-4.074-11.35-7.533c-2.992-3.365-5.16-7.84-3.986-11.929c0.04-0.527,0.359-0.975,0.522-1.465
		c0.161-0.504,0.439-0.952,0.749-1.386l0.432-0.672c0.042-0.07,0.224-0.312,0.128-0.238l0.301-0.322
		c0.411-0.425,0.812-0.91,1.213-1.265c1.409-1.246,3.493-2.203,5.491-2.59c4.058-0.831,8.478,0.224,11.04,2.94
		c1.314,1.316,2.084,3.047,2.222,4.835c0.25,1.802-0.023,3.547-0.602,5.236c-0.525,1.442-1.697,2.679-2.924,3.51
		c-1.281,0.868-2.777,1.162-4.154,1.279c-2.791,0.07-5.276-1.181-6.217-3.01c-0.537-0.877-0.669-1.802-0.798-2.595
		c0.065-0.798-0.014-1.521,0.172-2.063c0.285-1.102,0.443-1.694,0.443-1.694s-0.214,0.574-0.621,1.657
		c-0.287,1.064-0.775,2.917,0.252,4.994c0.912,2.119,3.598,3.757,6.762,3.901c1.573-0.004,3.323-0.229,4.924-1.144
		c1.575-0.924,3.029-2.277,3.876-4.284c0.672-1.722,1.141-3.859,0.936-5.992c-0.091-2.156-0.962-4.443-2.544-6.189
		c-3.125-3.589-8.391-5.063-13.289-4.093c-2.481,0.49-4.847,1.405-7.015,3.29c-0.474,0.425-0.843,0.85-1.268,1.284l-0.306,0.317
		c-0.264,0.322-0.235,0.327-0.364,0.504l-0.548,0.826c-0.392,0.541-0.747,1.102-0.98,1.75c-0.24,0.63-0.611,1.223-0.707,1.904
		c-0.779,2.646-0.532,5.549,0.401,8.055C144.751,219.041,146.198,221.29,147.895,223.255z M108.74,301.242
		c-0.908-0.368-1.857-0.326-2.623-0.42c-0.742,0.168-1.424,0.317-2.051,0.453c-1.186,0.308-1.953,0.956-2.523,1.199
		c-0.555,0.308-0.852,0.472-0.852,0.472s0.322-0.075,0.947-0.201c0.625-0.094,1.51-0.401,2.623-0.467
		c0.546,0,1.153-0.005,1.811-0.009c0.574,0.242,1.258,0.341,1.773,0.714c1.09,0.695,1.468,2.165,1.477,3.775
		c0,1.676-0.803,3.51-1.72,5.228c-1.062,1.708-2.6,3.112-4.317,4.187c-1.787,0.849-3.985,1.292-5.806,1.008
		c-0.884,0.093-2.432-0.621-3.626-0.896c-0.729-0.35-1.97-0.919-2.821-1.456c-1.776-1.209-3.024-2.87-3.731-4.816
		c-0.464-2.021-0.67-4.214-0.14-6.361c0.518-2.109,1.316-4.172,2.476-5.895c0.569-0.877,1.148-1.713,1.851-2.398
		c0.621-0.789,1.313-1.433,2.065-1.97c0.684-0.648,1.447-1.068,2.193-1.47c0.708-0.485,1.438-0.821,2.175-1.018
		c1.451-0.63,2.756-0.645,3.885-0.808c1.141-0.065,2.098,0.112,2.718,0.121c0.63,0.042,0.971,0.065,0.971,0.065
		s-0.317-0.116-0.91-0.341c-0.611-0.172-1.423-0.677-2.608-0.845c-1.209-0.112-2.787-0.41-4.492-0.074
		c-0.894,0.042-1.806,0.237-2.737,0.602c-0.961,0.275-1.932,0.677-2.858,1.274c-0.98,0.509-1.93,1.144-2.814,1.941
		c-0.971,0.705-1.76,1.643-2.571,2.618c-1.636,1.933-2.978,4.326-3.79,7.043c-0.816,2.716-1.018,5.838-0.264,8.942
		c0.952,3.094,3.001,5.895,5.664,7.737c1.414,0.841,2.639,1.429,4.359,2.082c1.405,0.289,2.327,0.826,4.096,0.905
		c3.475,0.514,6.461-0.574,9.089-2.025c2.49-1.699,4.292-3.953,5.412-6.324c1.017-2.413,1.624-4.854,1.27-7.234
		C112.047,304.256,110.756,301.952,108.74,301.242z M212.604,252.289c1.417,0.84,2.639,1.428,4.364,2.077
		c1.405,0.29,2.324,0.826,4.095,0.905c3.47,0.514,6.461-0.574,9.091-2.03c2.49-1.689,4.292-3.948,5.405-6.324
		c1.022-2.408,1.629-4.849,1.271-7.229c-0.287-2.32-1.577-4.625-3.594-5.334c-0.903-0.369-1.855-0.322-2.62-0.42
		c-0.745,0.168-1.424,0.317-2.049,0.453c-1.186,0.308-1.956,0.957-2.53,1.204c-0.548,0.303-0.854,0.471-0.854,0.471
		s0.329-0.08,0.954-0.201c0.623-0.093,1.51-0.401,2.621-0.467c0.548,0,1.155-0.005,1.815-0.009c0.569,0.243,1.255,0.341,1.769,0.714
		c1.095,0.695,1.465,2.165,1.482,3.775c0,1.675-0.805,3.514-1.722,5.227c-1.06,1.708-2.6,3.113-4.324,4.191
		c-1.783,0.845-3.981,1.288-5.801,1.008c-0.885,0.093-2.434-0.621-3.629-0.896c-0.721-0.35-1.965-0.919-2.814-1.456
		c-1.783-1.209-3.031-2.871-3.733-4.816c-0.467-2.021-0.667-4.215-0.138-6.361c0.516-2.109,1.313-4.172,2.476-5.895
		c0.562-0.882,1.146-1.713,1.844-2.399c0.623-0.784,1.316-1.433,2.07-1.97c0.679-0.644,1.449-1.064,2.189-1.47
		c0.711-0.485,1.444-0.821,2.18-1.017c1.449-0.635,2.758-0.644,3.885-0.808c1.137-0.065,2.094,0.112,2.719,0.122
		c0.633,0.042,0.971,0.065,0.971,0.065s-0.319-0.117-0.908-0.346c-0.611-0.168-1.423-0.677-2.613-0.84
		c-1.209-0.112-2.787-0.411-4.492-0.075c-0.894,0.046-1.804,0.243-2.735,0.602c-0.961,0.275-1.93,0.682-2.858,1.274
		c-0.982,0.514-1.93,1.144-2.814,1.942c-0.971,0.709-1.764,1.643-2.576,2.613c-1.634,1.932-2.973,4.326-3.79,7.052
		c-0.816,2.712-1.013,5.834-0.256,8.942C207.893,247.641,209.944,250.436,212.604,252.289z M74.328,275.05
		c-1.54,0.761-3.388,1.405-5.362,1.484c-1.965,0.2-4.107-0.327-5.741-1.494c-1.654-1.167-2.585-3.034-2.303-4.882
		c0.233-1.895,1.893-3.785,3.617-5.236c1.034-0.709,2.663-1.76,3.528-2.184c1.251-0.481,2.464-1.181,3.727-1.499
		c2.49-0.77,5.013-0.975,7.227-0.298c2.145,0.798,4.082,2.221,5.509,4.205c1.281,2.067,2.438,4.279,2.945,6.636
		c0.639,2.301,0.898,4.621,0.968,6.758c0.105,1.082-0.028,2.1-0.056,3.09c0,0.998-0.105,1.927-0.269,2.8
		c-0.21,1.792-0.679,3.234-1.036,4.476c-0.359,1.241-0.861,2.189-1.094,2.847c-0.278,0.663-0.417,1.013-0.417,1.013
		s0.235-0.303,0.66-0.872c0.383-0.598,1.162-1.308,1.755-2.525c0.625-1.186,1.442-2.669,2.012-4.466
		c0.711-1.77,1.186-3.884,1.438-6.23c0.268-2.348,0.35-4.957-0.138-7.683c-0.338-2.749-1.342-5.614-2.919-8.373
		c-1.706-2.688-4.317-5.223-7.738-6.469c-3.461-1.162-7.136-0.854-10.375,0.08c-1.641,0.457-3.05,1.293-4.564,1.932
		c-1.76,0.975-2.623,1.605-4,2.572c-2.795,2.249-5.028,5.231-5.376,9.002c-0.359,3.827,2.111,7.206,4.839,8.629
		c2.735,1.568,5.764,1.746,8.203,1.157c2.499-0.429,4.487-1.629,6.002-2.813c1.628-1.069,2.558-2.516,3.538-3.417
		c1.505-2.254,2.259-3.542,2.259-3.542s-1.09,1.027-2.992,2.828C77.06,273.249,75.957,274.401,74.328,275.05z M69.877,234.204
		c2.742,2.011,4.606,4.76,4.264,7.509c-0.322,2.758-2.586,5.12-4.947,6.263c-2.371,1.19-5.094,1.106-6.06-0.737
		c-1.008-1.811-0.707-4.084-0.392-5.68c0.345-1.652,0.702-2.959,1.022-3.836c0.292-0.877,0.451-1.349,0.451-1.349
		s-0.224,0.443-0.645,1.27c-0.432,0.817-1.024,2.054-1.544,3.734c-0.474,1.652-1.19,3.874-0.154,6.501
		c0.528,1.302,1.918,2.422,3.496,2.684c1.571,0.299,3.183-0.033,4.688-0.63c2.933-1.228,5.988-3.743,6.823-7.785
		c0.837-4.135-1.811-8.251-4.894-10.566c-3.169-2.432-6.522-4.495-10.753-5.437c-3.881-0.971-7.738-1.652-11.432-2.67
		c-3.64-0.938-7.435-2.254-9.357-4.55c-1.916-2.137-0.845-5.61,0.975-8.457c0.255-0.374,0.488-0.821,0.74-1.125l0.789-0.756
		c0.446-0.56,1.076-0.985,1.736-1.386c1.256-0.868,2.751-1.265,4.224-1.41c2.996-0.275,5.959,0.784,8.13,2.395
		c2.189,1.633,3.666,3.766,4.469,5.88c0.588,2.17,0.698,4.243,0.306,5.876c-0.214,0.807-0.315,1.573-0.53,2.189
		c-0.273,0.611-0.492,1.125-0.674,1.549c-0.374,0.85-0.569,1.307-0.569,1.307s0.268-0.424,0.747-1.208
		c0.252-0.397,0.553-0.892,0.913-1.47c0.32-0.597,0.525-1.363,0.831-2.193c0.598-1.676,0.761-3.902,0.338-6.427
		c-0.602-2.474-2.035-5.152-4.497-7.197c-2.417-2.039-5.787-3.561-9.596-3.486c-1.878,0.056-3.89,0.453-5.654,1.47
		c-0.912,0.467-1.792,1.003-2.546,1.834l-1.167,1.162c-0.324,0.392-0.532,0.77-0.812,1.152l-0.775,1.158
		c-0.441,0.597-0.492,0.985-0.756,1.489c-0.42,0.971-0.922,1.89-1.06,3.076c-0.679,2.156,0.042,4.994,1.524,6.86
		c0.438,0.518,0.94,0.877,1.428,1.297c-0.607-0.046-1.347,0.145-2.14,0.285c-0.42,0.093-0.866,0.177-1.318,0.271
		c-0.437,0.154-0.852,0.383-1.302,0.593c-0.453,0.224-0.908,0.453-1.379,0.686c-0.437,0.322-0.838,0.695-1.262,1.064
		c-0.908,0.682-1.515,1.764-2.161,2.786c-0.438,1.134-0.898,2.301-0.95,3.547c-0.101,0.611-0.072,1.232,0.028,1.839
		c0.086,0.611,0.096,1.223,0.315,1.797c0.282,1.195,0.957,2.236,1.61,3.197c0.441,0.443,0.847,0.877,1.295,1.25
		c0.455,0.355,1.048,0.588,1.541,0.84c1.059,0.359,2.235,0.541,3.134,0.187c0.976-0.159,1.636-0.677,2.175-1.125
		c0.611-0.373,0.917-0.891,1.195-1.288c0.537-0.793,0.775-1.246,0.775-1.246s-0.46,0.248-1.281,0.672
		c-0.374,0.214-0.826,0.485-1.396,0.583c-0.539,0.168-1.123,0.322-1.72,0.219c-0.292,0.004-0.588,0-0.852-0.187
		c-0.252-0.177-0.562-0.112-0.789-0.387c-0.229-0.233-0.497-0.374-0.707-0.635c-0.182-0.308-0.406-0.569-0.625-0.84
		c-0.324-0.686-0.602-1.377-0.77-2.166c-0.147-0.374-0.109-0.789-0.151-1.19c-0.063-0.401-0.063-0.803,0.028-1.199
		c-0.014-0.821,0.292-1.568,0.506-2.338c0.45-0.639,0.611-1.484,1.232-2.002c0.264-0.303,0.532-0.583,0.756-0.906
		c0.315-0.247,0.625-0.49,0.921-0.723c0.588-0.527,1.205-0.924,1.841-1.223c0.635-0.294,1.141-0.742,1.767-0.929
		c0.35-0.135,0.614-0.233,0.905-0.35c2.7,1.899,5.773,2.739,8.629,3.58c3.92,1.022,7.848,1.68,11.514,2.558
		C63.722,230.386,67.173,232.22,69.877,234.204z M236.033,256.559c-0.497,0.714-0.396,0.766-0.623,1.186l-0.85,2.002
		c-0.196,0.695-0.301,1.428-0.441,2.151c-0.353,2.903,0.191,5.796,1.19,8.181c0.898,2.479,2.301,4.509,3.561,6.469
		c2.691,3.804,5.5,6.894,7.82,9.572c2.312,2.674,4.142,4.976,5.141,6.706c1.095,1.741,1.405,2.987,1.463,2.945
		c-0.086,0.005,0.091-1.209-0.488-3.3c-0.53-2.151-1.811-4.975-3.685-8.093c-1.82-3.141-4.191-6.599-6.366-10.305
		c-2.039-3.687-4.072-7.85-3.444-11.481l0.224-1.354l0.525-1.288c0.023-0.084,0.154-0.392,0.168-0.466l0.478-0.682
		c0.329-0.443,0.698-1.097,0.985-1.223c0.903-1.036,2.866-2.185,4.583-2.735c3.617-1.19,7.708-0.942,10.034,0.593
		c1.267,0.733,1.626,1.918,1.802,3.095c0.026,1.236-0.357,2.38-0.703,3.323c-0.873,1.815-1.496,2.898-1.496,2.898
		s0.226-0.205,0.637-0.588c0.392-0.406,1.094-0.919,1.757-1.773c0.637-0.905,1.468-1.993,1.809-3.696
		c0.271-1.601-0.072-4.051-1.818-5.517c-1.566-1.507-3.703-2.562-5.988-2.945c-2.275-0.374-4.77-0.523-7.255,0.168
		c-2.499,0.738-4.961,1.479-7.26,3.949c-0.663,0.588-0.854,1.003-1.241,1.493L236.033,256.559z M162.678,307.897
		c-0.735-0.378-1.454-0.471-2.075-0.509c-0.606-0.121-1.131-0.046-1.542,0.015c-0.829,0.103-1.268,0.153-1.268,0.153
		s0.439,0.023,1.268,0.065c0.401,0.015,0.898,0.033,1.456,0.243c0.564,0.153,1.199,0.321,1.806,0.742
		c1.239,0.709,2.466,2.067,2.973,4.009c0.546,1.918,0.574,4.242,0.119,6.655c-0.476,2.38-1.519,5.026-3.311,6.87
		c-1.739,1.815-4.73,3.15-7.297,3.463c-2.581,0.14-4.732-1.545-6.303-4.312c-1.626-2.679-2.676-5.955-3.748-9.269
		c-1.022-3.127-1.783-6.707-3.02-10.072c-1.195-3.379-2.877-6.771-5.694-9.362c-1.452-1.208-3.134-2.296-4.999-2.608
		c-0.871-0.285-1.869-0.252-2.796-0.304c-0.898-0.014-1.563,0.154-2.34,0.22c-1.015,0.173-1.654,0.42-2.471,0.625
		c-0.775,0.267-1.526,0.673-2.243,1.013c-1.391,0.934-2.646,2.264-3.005,3.981c-0.278,1.708,0.277,3.239,1.018,4.387
		c0.865,1.088,1.806,1.938,2.84,2.483c2.039,1.12,4.058,1.461,5.645,1.32c1.596-0.069,2.819-0.462,3.549-0.788
		c0.761-0.317,1.167-0.49,1.167-0.49s-0.429,0.098-1.239,0.271c-0.803,0.229-2.002,0.322-3.463,0.22
		c-1.477-0.062-3.255-0.64-4.833-1.802c-1.583-1.115-2.892-3.221-2.446-5.097c0.28-0.91,1.064-1.619,2.053-2.207
		c0.583-0.201,1.139-0.462,1.765-0.616c0.611-0.103,1.409-0.289,1.883-0.336c0.726,0,1.601-0.126,2.231-0.033
		c0.607,0.136,1.209,0.103,1.836,0.383c1.274,0.336,2.385,1.102,3.412,2.021c2.016,1.961,3.334,4.905,4.401,8.023
		c1.113,3.15,1.769,6.478,2.863,10.048c1.132,3.332,2.262,6.814,4.264,10.053c0.989,1.605,2.226,3.207,4.009,4.35
		c1.739,1.162,3.949,1.676,5.956,1.498c1.958-0.294,3.75-0.891,5.213-1.792l1.099-0.658l0.273-0.163l0.233-0.154l0.11-0.098
		l0.455-0.364c0.588-0.405,1.241-1.097,1.851-1.824c2.203-2.726,3.015-5.745,3.372-8.527c0.336-2.786-0.033-5.423-0.968-7.532
		C165.842,309.937,164.173,308.485,162.678,307.897z M449.039,214.822c0.639,1.643,1.68,3.267,3.267,4.335
		c1.605,1.022,3.486,1.302,5.147,1.162c1.647-0.224,3.16-0.719,4.401-1.456c1.302-0.658,2.356-1.521,3.248-2.38
		c0.896-0.849,1.62-1.722,2.128-2.576c0.565-0.812,0.92-1.624,1.223-2.264c0.313-0.63,0.355-1.181,0.495-1.53
		c0.094-0.351,0.14-0.546,0.14-0.546s-0.093,0.173-0.284,0.49c-0.196,0.308-0.435,0.821-0.835,1.363
		c-0.402,0.546-0.854,1.199-1.536,1.853c-0.299,0.35-0.662,0.691-1.073,1.003c-0.401,0.327-0.784,0.709-1.279,1.003
		c-0.896,0.658-1.945,1.284-3.104,1.75c-1.143,0.537-2.436,0.756-3.696,0.891c-1.278,0.033-2.487-0.317-3.495-0.952
		c-0.984-0.709-1.699-1.82-2.18-3.104c-0.271-0.621-0.359-1.349-0.561-2.021c-0.103-0.495-0.182-1.503-0.209-2.166
		c0.051-1.181,0.303-2.469,1.026-3.169c0.672-0.7,1.745-0.905,2.753-0.592c1.009,0.308,1.9,1.031,2.451,1.904
		c0.602,0.85,0.914,1.82,1.097,2.707c0.247,0.882,0.111,1.704,0.191,2.375c-0.141,1.368-0.229,2.142-0.229,2.142
		s0.299-0.719,0.747-2.062c0.075-0.7,0.369-1.54,0.304-2.558c0.009-1.003-0.126-2.212-0.737-3.389
		c-0.532-1.199-1.568-2.403-3.095-3.042c-1.456-0.682-3.645-0.635-5.115,0.732c-1.456,1.344-1.988,3.22-2.035,5.097
		c0.043,0.877,0.047,1.438,0.206,2.478C448.604,213.146,448.707,213.996,449.039,214.822z M349.522,231.306
		c2.324-0.761,2.852-2.889,2.898-3.953c0.074-1.148-0.01-1.764-0.01-1.764s0.023,0.621-0.163,1.746
		c-0.136,1.05-0.9,2.894-2.885,3.375c-1.941,0.495-4.531-1.022-5.306-3.696c-0.658-2.562-0.467-6.371,1.811-8.56
		c2.348-2.235,6.632-1.634,9.754,0.611c3.347,2.138,5.521,5.862,8.924,9.386c1.703,1.736,4.13,3.253,6.8,3.649
		c2.684,0.411,5.139,0.028,7.775-0.602c4.845-1.428,9.357-4.406,12.82-8.251c1.694-1.965,3.141-4.214,4.061-6.739
		c0.934-2.506,1.181-5.409,0.401-8.055c-0.094-0.686-0.472-1.274-0.705-1.904c-0.233-0.649-0.583-1.213-0.971-1.75l-0.56-0.826
		c-0.126-0.177-0.099-0.182-0.359-0.504l-0.309-0.322c-0.424-0.429-0.788-0.854-1.265-1.279c-2.165-1.885-4.531-2.8-7.019-3.29
		c-4.896-0.971-10.165,0.499-13.283,4.093c-1.587,1.746-2.464,4.037-2.543,6.188c-0.206,2.133,0.266,4.275,0.942,5.993
		c0.84,2.002,2.287,3.355,3.864,4.285c1.605,0.91,3.36,1.129,4.924,1.139c3.169-0.14,5.848-1.778,6.768-3.897
		c1.026-2.086,0.531-3.93,0.247-4.994c-0.401-1.083-0.616-1.657-0.616-1.657s0.154,0.588,0.443,1.694
		c0.191,0.541,0.103,1.265,0.173,2.062c-0.136,0.793-0.262,1.723-0.803,2.595c-0.938,1.83-3.431,3.08-6.212,3.01
		c-1.382-0.117-2.88-0.416-4.149-1.279c-1.236-0.831-2.403-2.068-2.936-3.514c-0.573-1.685-0.849-3.431-0.602-5.232
		c0.145-1.788,0.905-3.514,2.222-4.835c2.558-2.716,6.986-3.775,11.052-2.94c1.992,0.383,4.079,1.344,5.479,2.59
		c0.401,0.354,0.812,0.84,1.214,1.26l0.303,0.327c-0.093-0.08,0.099,0.168,0.136,0.238l0.425,0.672
		c0.317,0.434,0.593,0.882,0.747,1.386c0.168,0.49,0.485,0.938,0.522,1.466c1.181,4.079-0.989,8.564-3.986,11.929
		c-3.043,3.458-6.963,6.165-11.35,7.533c-2.03,0.504-4.388,0.905-6.39,0.593c-2.049-0.29-3.804-1.321-5.329-2.805
		c-2.987-3.024-5.676-7.061-9.624-9.367c-1.89-1.228-4.074-1.941-6.263-2.072c-2.194-0.107-4.462,0.602-5.961,2.133
		c-1.493,1.526-2.104,3.467-2.268,5.273c-0.121,1.713,0,3.458,0.583,4.971C344.094,230.494,347.282,232.057,349.522,231.306z
		 M404.911,223.125l0.485,0.751c0.49,0.714,0.569,0.64,0.883,0.994l1.572,1.503c0.588,0.43,1.232,0.793,1.857,1.176
		c2.595,1.358,5.488,1.872,8.074,1.788c2.642,0.037,5.036-0.551,7.318-1.036c4.494-1.158,8.391-2.702,11.709-3.906
		c3.323-1.218,6.123-2.119,8.103-2.437c2.012-0.406,3.29-0.257,3.267-0.327c-0.027,0.084-1.092-0.509-3.258-0.709
		c-2.198-0.271-5.287-0.075-8.862,0.579c-3.585,0.583-7.663,1.582-11.892,2.291c-4.173,0.603-8.779,1.022-11.962-0.845l-1.19-0.69
		l-1.008-0.943c-0.098-0.08-0.532-0.49-0.341-0.28l-0.499-0.729c-0.299-0.466-0.779-1.045-0.794-1.353
		c-0.648-1.218-1.026-3.463-0.933-5.265c0.163-3.799,1.848-7.538,4.111-9.171c1.12-0.919,2.356-0.835,3.523-0.588
		c1.167,0.42,2.096,1.181,2.87,1.839c1.382,1.456,2.161,2.427,2.161,2.427s-0.107-0.285-0.312-0.803
		c-0.243-0.504-0.472-1.349-1.036-2.277c-0.616-0.906-1.349-2.072-2.819-2.997c-1.4-0.826-3.812-1.372-5.811-0.257
		c-1.969,0.938-3.705,2.558-4.872,4.56c-1.153,1.993-2.185,4.275-2.418,6.837c-0.195,2.595-0.373,5.166,1.116,8.181
		C404.267,222.256,404.598,222.587,404.911,223.125z M269.92,304.817l6.319-8.316l-6.319-8.308l-6.317,8.308L269.92,304.817z
		 M309.674,253.241c2.633,1.457,5.629,2.544,9.092,2.03c1.773-0.084,2.688-0.621,4.093-0.905c1.731-0.648,2.954-1.237,4.363-2.077
		c2.661-1.848,4.71-4.648,5.657-7.738c0.761-3.108,0.569-6.226-0.252-8.947c-0.817-2.721-2.161-5.11-3.79-7.047
		c-0.821-0.975-1.61-1.904-2.581-2.613c-0.882-0.798-1.829-1.428-2.813-1.942c-0.915-0.592-1.891-0.999-2.856-1.274
		c-0.929-0.359-1.844-0.555-2.735-0.602c-1.708-0.336-3.29-0.037-4.489,0.075c-1.19,0.168-1.998,0.677-2.618,0.84
		c-0.589,0.229-0.906,0.345-0.906,0.345s0.336-0.023,0.976-0.065c0.626-0.009,1.578-0.187,2.717-0.122
		c1.124,0.164,2.44,0.178,3.888,0.808c0.732,0.196,1.475,0.537,2.18,1.018c0.741,0.406,1.512,0.821,2.197,1.47
		c0.738,0.537,1.438,1.185,2.063,1.969c0.7,0.691,1.283,1.521,1.839,2.399c1.166,1.722,1.96,3.785,2.482,5.895
		c0.519,2.147,0.322,4.34-0.14,6.361c-0.695,1.946-1.956,3.607-3.738,4.816c-0.85,0.537-2.091,1.106-2.81,1.456
		c-1.195,0.275-2.749,0.99-3.631,0.896c-1.815,0.28-4.014-0.163-5.802-1.008c-1.717-1.078-3.257-2.483-4.326-4.191
		c-0.915-1.717-1.713-3.551-1.713-5.227c0.019-1.605,0.388-3.08,1.479-3.775c0.514-0.374,1.195-0.472,1.765-0.714
		c0.662,0.005,1.269,0.005,1.815,0.01c1.11,0.065,1.997,0.373,2.618,0.466c0.625,0.126,0.961,0.201,0.961,0.201
		s-0.303-0.163-0.849-0.471c-0.579-0.248-1.35-0.896-2.539-1.204c-0.621-0.131-1.298-0.285-2.049-0.453
		c-0.766,0.093-1.709,0.051-2.614,0.42c-2.025,0.709-3.309,3.015-3.603,5.334c-0.354,2.38,0.262,4.821,1.273,7.229
		C305.385,249.292,307.187,251.551,309.674,253.241z M281.523,262.393c0.677,0.854,1.377,1.368,1.759,1.773
		c0.416,0.383,0.64,0.588,0.64,0.588s-0.63-1.083-1.498-2.898c-0.35-0.947-0.729-2.091-0.705-3.323
		c0.183-1.176,0.542-2.362,1.802-3.095c2.324-1.535,6.422-1.783,10.034-0.593c1.723,0.551,3.683,1.699,4.583,2.735
		c0.29,0.126,0.663,0.784,0.985,1.223l0.48,0.682c0.019,0.074,0.145,0.382,0.168,0.466l0.527,1.288l0.224,1.354
		c0.621,3.631-1.409,7.794-3.444,11.481c-2.17,3.706-4.55,7.164-6.365,10.305c-1.881,3.118-3.16,5.941-3.688,8.093
		c-0.578,2.091-0.401,3.305-0.49,3.3c0.057,0.042,0.374-1.204,1.471-2.945c0.989-1.73,2.818-4.036,5.143-6.706
		c2.301-2.684,5.13-5.773,7.809-9.572c1.265-1.96,2.67-3.99,3.561-6.469c1.004-2.385,1.545-5.278,1.199-8.181
		c-0.135-0.723-0.247-1.456-0.443-2.151l-0.849-2.002c-0.229-0.415-0.126-0.471-0.63-1.186l-0.514-0.714
		c-0.393-0.49-0.588-0.905-1.256-1.493c-2.287-2.469-4.746-3.207-7.252-3.949c-2.483-0.691-4.98-0.537-7.258-0.168
		c-2.287,0.383-4.415,1.433-5.988,2.945c-1.74,1.466-2.09,3.916-1.815,5.517C280.057,260.4,280.897,261.488,281.523,262.393z
		 M523.889,264.699c-0.188,0.354-0.364,0.677-0.547,0.994l-0.84,1.396c-10.968,17.688-23.751,30.215-39.035,38.289
		c-8.891,37.373-42.419,57.251-63.706,57.251c-1.629,0-3.22-0.104-4.728-0.317c-2.445-0.351-5.923-1.06-9.604-2.497
		c-12.308,8.064-26.196,9.404-39.876,3.851c-11.374,6.762-24.026,8.391-38.797,4.975c-3.916-0.905-7.37-2.17-10.413-3.285
		c-3.211-1.177-5.936-2.18-8.274-2.446c-10.402-1.228-17.151,1.228-22.934,8.364c-1.018,1.88-2.315,3.485-3.86,4.793
		c-0.158,0.148-0.284,0.252-0.573,0.48c-3.001,2.408-6.791,3.738-10.653,3.738h-0.096c-4.196,0-8.095-1.424-11.164-4.014
		l-0.483-0.416c-1.515-1.353-2.77-2.949-3.741-4.751c-5.74-6.986-12.507-9.385-22.801-8.19c-2.348,0.271-5.08,1.274-8.245,2.432
		c-3.05,1.12-6.503,2.385-10.452,3.3c-14.776,3.421-27.417,1.792-38.797-4.979c-13.649,5.554-27.655,4.195-39.88-3.842
		c-3.675,1.442-7.145,2.143-9.582,2.492c-1.517,0.215-3.113,0.322-4.737,0.322c-21.286,0-54.821-19.877-63.71-57.251
		c-15.287-8.069-28.028-20.535-38.893-38.055l-0.959-1.591c-0.187-0.317-0.378-0.658-0.56-1.004
		C2.324,237.97-2.497,208.554,1.202,174.741c0.803-7.285,6.146-13.236,13.301-14.809c7.055-1.554,14.58,1.722,18.274,7.869
		c3.484,5.796,8.728,8.583,17.191,11.709c12.085,4.467,24.936,5.778,39.806,4.079c0.329-0.037,0.684-0.065,1.022-0.084l57.583-3.089
		c12.463-7.575,25.65-10.361,38.674-8.172c24.99,4.196,37.038,17.987,42.825,29.659c16.116,2.143,29.277,10.053,40.044,24.078
		c10.763-14.02,23.923-21.93,40.039-24.078c5.787-11.672,17.842-25.463,42.825-29.659c13.077-2.188,26.2,0.598,38.671,8.172
		l57.602,3.089c0.321,0.014,0.677,0.047,1.021,0.084c14.823,1.694,27.704,0.374,39.782-4.083
		c8.462-3.123,13.707-5.909,17.189-11.705c3.7-6.156,11.257-9.409,18.28-7.874c7.15,1.573,12.499,7.519,13.302,14.804
		C542.329,208.554,537.507,237.97,523.889,264.699z M521.671,172.841c-6.328,10.524-15.821,15.201-25.906,18.916
		c-15.435,5.703-31.326,6.879-47.628,5.036l-58.077-3.117c-1.428,0.579-3.911-0.117-5.334-1.069
		c-8.872-5.951-18.478-9.073-29.118-7.29c-17.086,2.866-29.268,11.738-33.58,29.365c-29.831-1.433-41.396,19.228-52.103,41.831
		c-10.704-22.598-22.276-43.264-52.105-41.831c-4.312-17.627-16.494-26.5-33.577-29.365c-10.639-1.788-20.25,1.339-29.125,7.29
		c-1.419,0.952-3.904,1.647-5.33,1.069l-58.089,3.122c-16.298,1.848-32.191,0.667-47.632-5.036
		c-10.081-3.715-19.576-8.392-25.905-18.916c-3.143,28.707,0.173,55.23,12.986,80.353l0.831,1.386
		c10.1,16.288,22.554,28.59,39.642,35.288c4.058,36.763,36.814,53.779,50.794,51.796c3.152-0.448,6.503-1.466,9.126-3.197
		c3.493-2.306,6.06-1.517,8.823,0.798c10.078,8.434,20.663,9.124,32.081,2.591c1.61-0.925,5.099-0.527,6.613,0.662
		c9.162,7.243,18.932,8.345,30.178,5.74c6.986-1.614,13.121-5.189,20.567-6.053c17.287-2.012,30.275,3.691,39.748,16.634v0.42
		c0.082,0.069,0.154,0.136,0.235,0.2c0.042-0.056,0.091-0.103,0.133-0.158c0.042,0.056,0.091,0.103,0.128,0.158
		c0.082-0.064,0.154-0.135,0.235-0.2v-0.42c9.479-12.942,22.462-18.646,39.75-16.634c7.439,0.863,13.577,4.438,20.568,6.053
		c11.242,2.604,21.011,1.503,30.172-5.74c1.513-1.194,5.008-1.587,6.613-0.662c11.416,6.533,22.001,5.838,32.091-2.591
		c2.759-2.314,5.32-3.104,8.812-0.798c2.623,1.731,5.979,2.749,9.134,3.197c13.974,1.983,46.736-15.033,50.792-51.796
		c17.086-6.692,29.538-19,39.642-35.288l0.826-1.386C521.5,228.071,524.813,201.548,521.671,172.841z M418.646,295.53
		c-0.714-0.341-1.47-0.752-2.235-1.014c-0.821-0.2-1.466-0.452-2.479-0.625c-0.779-0.065-1.446-0.233-2.343-0.219
		c-0.924,0.051-1.928,0.019-2.795,0.303c-1.858,0.312-3.543,1.4-4.994,2.609c-2.824,2.59-4.499,5.982-5.698,9.361
		c-1.232,3.365-1.993,6.945-3.021,10.072c-1.078,3.318-2.118,6.59-3.747,9.269c-1.573,2.768-3.725,4.452-6.306,4.312
		c-2.562-0.312-5.554-1.647-7.294-3.463c-1.792-1.844-2.843-4.494-3.31-6.87c-0.447-2.413-0.429-4.737,0.121-6.655
		c0.505-1.941,1.732-3.3,2.969-4.009c0.616-0.42,1.241-0.588,1.807-0.742c0.551-0.21,1.055-0.229,1.465-0.242
		c0.816-0.043,1.256-0.066,1.256-0.066s-0.439-0.051-1.256-0.153c-0.42-0.061-0.938-0.136-1.549-0.015
		c-0.626,0.038-1.335,0.131-2.077,0.509c-1.493,0.589-3.164,2.04-4.052,4.187c-0.924,2.109-1.302,4.742-0.966,7.533
		c0.354,2.781,1.177,5.791,3.379,8.526c0.603,0.724,1.261,1.419,1.844,1.825l0.453,0.363l0.111,0.099l0.233,0.154l0.28,0.163
		l1.097,0.658c1.456,0.9,3.258,1.498,5.209,1.792c2.007,0.182,4.219-0.331,5.959-1.498c1.778-1.144,3.02-2.744,4.01-4.35
		c1.997-3.239,3.122-6.721,4.261-10.054c1.097-3.565,1.745-6.897,2.861-10.048c1.068-3.117,2.39-6.062,4.405-8.022
		c1.027-0.92,2.138-1.694,3.407-2.021c0.63-0.279,1.228-0.247,1.834-0.382c0.63-0.099,1.503,0.027,2.23,0.032
		c0.481,0.047,1.274,0.233,1.886,0.336c0.625,0.159,1.181,0.416,1.765,0.616c0.989,0.588,1.782,1.298,2.058,2.208
		c0.448,1.876-0.858,3.98-2.45,5.096c-1.572,1.162-3.346,1.741-4.835,1.802c-1.456,0.098-2.655,0.01-3.463-0.22
		c-0.808-0.177-1.236-0.271-1.236-0.271s0.405,0.173,1.166,0.49c0.733,0.327,1.956,0.719,3.552,0.789
		c1.587,0.14,3.612-0.201,5.643-1.321c1.031-0.546,1.979-1.396,2.838-2.482c0.747-1.153,1.297-2.68,1.021-4.388
		C421.292,297.793,420.033,296.462,418.646,295.53z M364.307,290.391c-21.469-0.64-42.172,1.698-60.938,14.855
		c3.225-29.977,26.047-54.591,57.251-62.787c17.375-4.574,34.933-2.413,52.448-1.834c8.368,0.275,16.773,1.167,25.076,0.607
		c6.039-0.411,11.957-2.74,18.053-4.247c-3.323,12.377-9.577,24.198-19.196,34.298c-11.976,12.583-27.508,17.17-43.982,18.864
		C383.545,291.124,373.879,290.675,364.307,290.391z M367.84,277.183c4.106,0.131,8.056,0.257,12.004,0.257
		c4.466,0,8.093-0.163,11.438-0.509c15.626-1.61,25.917-5.82,33.37-13.661c0.378-0.396,0.751-0.798,1.115-1.199
		c-2.138-0.089-4.214-0.201-6.16-0.308c-2.371-0.131-4.732-0.262-7.104-0.341c-3.407-0.107-6.814-0.28-10.226-0.458
		c-5.731-0.289-11.033-0.55-16.283-0.55c-8.41,0-15.094,0.728-21.025,2.291c-11.07,2.903-20.871,8.364-28.497,15.737
		c8.545-1.265,16.139-1.456,21.729-1.456c2.193,0,4.401,0.033,6.613,0.103L367.84,277.183z M357.568,317.306
		c-0.056-0.682-0.098-0.598-0.149-0.938l-0.294-1.433c-0.35-1.097-0.705-2.235-1.223-3.188c-1.899-3.977-5.236-7.229-9.222-9.213
		c-3.995-1.97-8.868-2.464-13.161-0.929c-4.309,1.512-7.617,5.278-8.896,9.255c-1.476,3.972-0.925,8.625,1.525,11.854
		c2.6,3.113,6.245,4.568,9.521,4.452c3.486,0.019,6.407-1.782,7.779-4.145c1.466-2.361,1.106-5.035,0.122-6.585
		c-0.957-1.624-2.236-2.376-3.034-2.842c-0.835-0.416-1.292-0.64-1.292-0.64s0.4,0.289,1.166,0.83
		c0.719,0.565,1.75,1.526,2.418,3.021c0.695,1.47,0.682,3.626-0.695,5.344c-1.288,1.717-3.799,2.8-6.319,2.641
		c-2.693-0.041-5.559-1.596-7.178-3.883c-1.536-2.412-1.713-5.769-0.514-8.778c1.148-3.09,3.612-5.545,6.729-6.674
		c3.169-1.078,6.823-0.7,9.969,0.887c3.165,1.507,5.895,4.111,7.421,7.215c1.563,2.754,1.844,6.749,1.219,9.913
		c-0.7,3.239-2.525,6.039-4.957,8.079c-2.427,2.067-5.265,3.463-7.952,4.513c-5.475,1.979-10.394,2.917-13.843,3.318
		c-3.444,0.42-5.461,0.56-5.461,0.56s1.983,0.233,5.508,0.257c3.5-0.069,8.61-0.168,14.547-1.89c2.936-0.915,6.118-2.18,9.115-4.364
		c2.958-2.128,5.675-5.502,6.65-9.623c0.168-1.022,0.326-2.054,0.49-3.1c0.103-1.04,0.014-2.076,0.014-3.131L357.568,317.306z
		 M301.806,326.967c-1.984-0.033-4.229,0-6.329-0.7c-1.102-0.206-2.039-0.845-3.024-1.303l-1.334-0.933l-1.14-1.182
		c-0.677-0.854-1.334-1.75-1.735-2.795c-0.411-1.022-0.859-2.096-0.985-3.211c-0.21-1.102-0.308-2.217-0.299-3.305
		c-0.079-1.092,0.159-2.123,0.168-3.127c0.309-1.89,0.579-3.617,0.976-4.835c0.312-1.218,0.462-1.941,0.462-1.941
		s-0.527,0.514-1.372,1.446c-0.401,0.5-0.984,0.98-1.414,1.793c-0.457,0.77-1.073,1.656-1.525,2.697
		c-0.369,1.055-0.985,2.18-1.167,3.505c-0.29,1.302-0.522,2.712-0.411,4.229c0.033,1.484,0.289,3.099,0.878,4.615
		c0.531,1.555,1.438,3.001,2.464,4.354l1.853,1.76l2.133,1.363c1.466,0.732,3.038,1.25,4.551,1.399
		c1.512,0.336,2.954,0.099,4.284,0.019c1.321-0.187,2.516-0.583,3.604-0.896c2.091-0.878,3.691-1.76,4.681-2.591
		c1.036-0.77,1.573-1.236,1.573-1.236s-0.752,0.079-1.975,0.275C305.516,326.65,303.771,326.752,301.806,326.967z M478.132,260.732
		c-1.377-0.962-2.24-1.592-3.994-2.572c-1.513-0.639-2.932-1.475-4.564-1.932c-3.239-0.929-6.912-1.237-10.38-0.08
		c-3.412,1.246-6.034,3.785-7.738,6.469c-1.577,2.758-2.581,5.624-2.922,8.373c-0.489,2.726-0.405,5.339-0.135,7.683
		c0.257,2.343,0.728,4.461,1.442,6.23c0.569,1.797,1.381,3.28,2.016,4.466c0.588,1.214,1.367,1.928,1.75,2.525
		c0.43,0.569,0.658,0.872,0.658,0.872s-0.145-0.35-0.415-1.013c-0.238-0.657-0.742-1.605-1.097-2.847
		c-0.364-1.241-0.84-2.684-1.036-4.476c-0.168-0.873-0.275-1.802-0.275-2.8c-0.028-0.99-0.163-2.008-0.052-3.09
		c0.065-2.138,0.327-4.457,0.962-6.758c0.509-2.357,1.68-4.574,2.944-6.636c1.438-1.988,3.365-3.407,5.512-4.205
		c2.217-0.677,4.742-0.472,7.234,0.298c1.26,0.317,2.482,1.018,3.729,1.499c0.859,0.424,2.488,1.475,3.524,2.184
		c1.713,1.451,3.384,3.337,3.612,5.236c0.284,1.848-0.653,3.715-2.301,4.882c-1.639,1.167-3.776,1.694-5.741,1.494
		c-1.974-0.079-3.822-0.724-5.367-1.484c-1.628-0.649-2.721-1.802-3.841-2.479c-1.895-1.801-2.986-2.828-2.986-2.828
		s0.751,1.288,2.259,3.542c0.979,0.901,1.913,2.343,3.532,3.417c1.513,1.186,3.506,2.39,6.002,2.813
		c2.441,0.594,5.47,0.411,8.215-1.157c2.721-1.423,5.194-4.797,4.83-8.629C483.16,265.963,480.928,262.981,478.132,260.732z
		 M453.336,295.446c-0.816-0.976-1.605-1.914-2.576-2.619c-0.882-0.798-1.834-1.428-2.814-1.941c-0.91-0.597-1.89-0.998-2.856-1.273
		c-0.929-0.364-1.843-0.561-2.739-0.603c-1.698-0.336-3.285-0.042-4.485,0.075c-1.189,0.168-1.997,0.672-2.613,0.845
		c-0.593,0.224-0.91,0.341-0.91,0.341s0.341-0.02,0.971-0.065c0.626-0.01,1.578-0.187,2.726-0.122
		c1.12,0.164,2.437,0.178,3.883,0.808c0.737,0.196,1.476,0.537,2.175,1.018c0.752,0.401,1.518,0.821,2.199,1.47
		c0.741,0.537,1.437,1.182,2.062,1.965c0.7,0.695,1.283,1.526,1.848,2.404c1.158,1.722,1.951,3.785,2.479,5.895
		c0.522,2.146,0.322,4.34-0.145,6.361c-0.695,1.945-1.951,3.607-3.729,4.816c-0.854,0.536-2.095,1.105-2.81,1.456
		c-1.204,0.275-2.753,0.989-3.64,0.896c-1.815,0.285-4.01-0.163-5.802-1.008c-1.708-1.073-3.258-2.479-4.321-4.187
		c-0.915-1.713-1.713-3.552-1.713-5.228c0.014-1.605,0.383-3.08,1.475-3.775c0.519-0.373,1.194-0.476,1.769-0.714
		c0.663,0.005,1.27,0.01,1.812,0.01c1.115,0.065,1.997,0.373,2.622,0.466c0.631,0.127,0.957,0.201,0.957,0.201
		s-0.299-0.158-0.854-0.472c-0.574-0.242-1.345-0.892-2.53-1.199c-0.62-0.136-1.297-0.289-2.049-0.452
		c-0.765,0.093-1.708,0.051-2.618,0.42c-2.016,0.709-3.304,3.015-3.598,5.334c-0.355,2.381,0.261,4.821,1.27,7.234
		c1.119,2.371,2.921,4.625,5.408,6.323c2.633,1.452,5.624,2.544,9.092,2.026c1.778-0.084,2.688-0.621,4.093-0.906
		c1.728-0.653,2.955-1.236,4.364-2.081c2.66-1.844,4.704-4.644,5.661-7.738c0.756-3.104,0.56-6.226-0.262-8.942
		C456.309,299.772,454.97,297.382,453.336,295.446z M260.659,277.081c-0.726,0.28-1.458,0.326-2.026,0.271
		c-0.583-0.052-1.038-0.21-1.325-0.359c-0.275-0.177-0.425-0.266-0.425-0.266s0.124,0.13,0.355,0.368
		c0.256,0.21,0.667,0.532,1.3,0.695c0.611,0.188,1.418,0.29,2.34,0.121c0.894-0.168,2.028-0.611,2.714-1.769
		c0.327-0.583,0.497-1.241,0.45-2.021c-0.009-0.374-0.091-0.593-0.133-0.901c-0.164-0.471-0.278-0.705-0.432-1.073
		c-0.175-0.332-0.462-0.621-0.703-0.934c-0.296-0.266-0.648-0.485-0.984-0.709c-0.726-0.341-1.524-0.499-2.29-0.513
		c-1.528-0.005-3.005,0.369-4.361,0.994c-1.349,0.635-2.644,1.456-3.766,2.553c-0.287,0.261-0.527,0.602-0.789,0.906
		c-0.259,0.322-0.516,0.798-0.716,1.166l-0.182,0.495c-0.049,0.131-0.028,0.052-0.119,0.354l-0.062,0.317
		c-0.101,0.425-0.11,0.873-0.11,1.303c0.1,1.782,1.057,3.178,1.956,4.224c1.897,2.123,4.014,3.426,5.687,4.657
		c1.643,1.204,3.12,2.301,3.139,3.412c0.014,0.536-0.292,0.933-0.483,1.194c-0.224,0.238-0.343,0.364-0.343,0.364
		s0.143-0.094,0.43-0.271c0.231-0.205,0.728-0.532,0.838-1.246c0.124-0.715-0.227-1.555-0.747-2.273
		c-0.525-0.737-1.208-1.47-1.983-2.193c-1.515-1.479-3.47-3.02-4.961-4.929c-0.749-0.942-1.256-2.025-1.295-3.028
		c0.009-0.252,0.009-0.504,0.082-0.752l0.04-0.191c-0.049,0.127,0.042-0.103,0.061-0.135l0.187-0.49
		c0.164-0.215,0.245-0.359,0.42-0.583c0.206-0.225,0.364-0.462,0.603-0.663c1.741-1.722,4.308-3.006,6.501-3.146
		c1.099-0.047,1.998,0.261,2.49,1.018c0.1,0.172,0.238,0.476,0.319,0.532c0.056,0.271,0.182,0.597,0.201,0.793
		c0.061,0.35,0.042,0.798-0.105,1.157C262.096,276.268,261.37,276.795,260.659,277.081z M236.467,305.247
		c-18.771-13.157-39.47-15.495-60.938-14.851c-9.568,0.284-19.235,0.732-28.722-0.243c-16.47-1.694-31.997-6.277-43.982-18.864
		c-9.616-10.1-15.868-21.921-19.188-34.298c6.093,1.507,12.011,3.836,18.05,4.247c8.303,0.56,16.708-0.332,25.072-0.607
		c17.52-0.583,35.073-2.739,52.456,1.834C210.415,250.655,233.242,275.265,236.467,305.247z M203.363,278.448
		c-7.619-7.374-17.419-12.834-28.485-15.737c-5.938-1.563-12.634-2.292-21.037-2.292c-5.253,0-10.552,0.266-16.176,0.551
		c-3.493,0.177-6.917,0.345-10.337,0.458c-2.366,0.079-4.732,0.205-7.092,0.34c-2.079,0.112-4.125,0.224-6.174,0.304
		c0.366,0.406,0.739,0.807,1.118,1.204c7.465,7.836,17.758,12.05,33.372,13.656c3.347,0.346,6.982,0.509,11.441,0.509
		c3.949,0,7.899-0.126,11.848-0.252l3.178-0.094c2.217-0.065,4.419-0.103,6.618-0.103
		C187.229,276.992,194.813,277.183,203.363,278.448z M508.282,225.397c-0.425-0.368-0.83-0.737-1.265-1.064
		c-0.471-0.233-0.929-0.462-1.377-0.686c-0.457-0.21-0.872-0.438-1.307-0.593c-0.452-0.093-0.896-0.182-1.316-0.271
		c-0.793-0.14-1.525-0.332-2.142-0.285c0.49-0.42,0.984-0.784,1.433-1.297c1.484-1.867,2.208-4.705,1.517-6.861
		c-0.126-1.185-0.63-2.1-1.055-3.076c-0.271-0.504-0.312-0.891-0.756-1.489l-0.774-1.157c-0.275-0.383-0.477-0.761-0.808-1.153
		l-1.172-1.162c-0.756-0.831-1.633-1.372-2.548-1.834c-1.76-1.018-3.771-1.414-5.652-1.47c-3.808-0.075-7.168,1.447-9.595,3.486
		c-2.47,2.04-3.897,4.728-4.499,7.197c-0.416,2.524-0.248,4.751,0.345,6.426c0.299,0.835,0.504,1.596,0.826,2.194
		c0.359,0.579,0.668,1.073,0.91,1.47c0.49,0.784,0.747,1.209,0.747,1.209s-0.196-0.458-0.564-1.307
		c-0.183-0.425-0.406-0.938-0.673-1.55c-0.219-0.621-0.317-1.381-0.536-2.188c-0.383-1.634-0.28-3.706,0.308-5.876
		c0.803-2.114,2.277-4.247,4.472-5.881c2.174-1.61,5.133-2.669,8.125-2.394c1.479,0.145,2.973,0.546,4.224,1.41
		c0.672,0.396,1.298,0.826,1.745,1.386l0.784,0.756c0.257,0.303,0.495,0.751,0.737,1.125c1.825,2.847,2.894,6.314,0.98,8.457
		c-1.923,2.296-5.722,3.612-9.353,4.55c-3.696,1.018-7.557,1.699-11.444,2.669c-4.224,0.943-7.579,3.006-10.748,5.438
		c-3.085,2.314-5.736,6.431-4.896,10.566c0.835,4.042,3.883,6.557,6.823,7.785c1.503,0.598,3.127,0.924,4.686,0.63
		c1.577-0.261,2.969-1.381,3.496-2.683c1.04-2.627,0.316-4.849-0.149-6.501c-0.514-1.685-1.116-2.917-1.54-3.733
		c-0.425-0.826-0.649-1.27-0.649-1.27s0.154,0.471,0.453,1.349c0.312,0.873,0.681,2.184,1.021,3.836
		c0.309,1.601,0.616,3.874-0.396,5.68c-0.961,1.848-3.687,1.928-6.062,0.738c-2.356-1.144-4.62-3.505-4.947-6.264
		c-0.341-2.749,1.517-5.498,4.266-7.509c2.698-1.988,6.156-3.818,9.554-4.48c3.673-0.877,7.594-1.535,11.514-2.557
		c2.856-0.84,5.928-1.681,8.635-3.58c0.289,0.117,0.56,0.21,0.905,0.35c0.63,0.187,1.129,0.635,1.769,0.929
		c0.63,0.299,1.246,0.696,1.839,1.223c0.299,0.233,0.606,0.476,0.915,0.723c0.229,0.327,0.499,0.602,0.761,0.905
		c0.616,0.518,0.779,1.363,1.231,2.002c0.22,0.77,0.523,1.507,0.509,2.338c0.084,0.397,0.089,0.798,0.033,1.2
		c-0.042,0.401-0.015,0.817-0.154,1.19c-0.178,0.793-0.453,1.484-0.779,2.161c-0.215,0.275-0.443,0.532-0.626,0.845
		c-0.21,0.261-0.471,0.401-0.699,0.635c-0.233,0.275-0.537,0.21-0.789,0.387c-0.271,0.187-0.564,0.191-0.854,0.187
		c-0.597,0.103-1.181-0.051-1.717-0.219c-0.574-0.103-1.022-0.369-1.4-0.583c-0.821-0.424-1.283-0.672-1.283-0.672
		s0.247,0.453,0.784,1.246c0.275,0.396,0.578,0.915,1.189,1.288c0.542,0.448,1.199,0.971,2.175,1.125
		c0.901,0.355,2.087,0.178,3.137-0.187c0.494-0.257,1.087-0.485,1.545-0.84c0.443-0.374,0.849-0.808,1.283-1.251
		c0.653-0.966,1.33-2.002,1.61-3.197c0.229-0.574,0.242-1.19,0.322-1.797c0.093-0.607,0.121-1.228,0.032-1.839
		c-0.061-1.246-0.522-2.413-0.957-3.547C509.798,227.162,509.192,226.079,508.282,225.397z M282.806,286.96
		c1.671-1.231,3.785-2.534,5.689-4.657c0.896-1.046,1.853-2.441,1.945-4.224c0-0.435-0.004-0.883-0.103-1.303l-0.069-0.317
		c-0.094-0.303-0.07-0.224-0.112-0.354l-0.187-0.495c-0.196-0.377-0.462-0.844-0.714-1.166c-0.262-0.304-0.505-0.649-0.794-0.906
		c-1.12-1.097-2.413-1.918-3.766-2.553c-1.35-0.625-2.829-0.999-4.359-0.994c-0.766,0.014-1.555,0.172-2.292,0.513
		c-0.336,0.224-0.686,0.443-0.984,0.709c-0.243,0.313-0.522,0.602-0.695,0.934c-0.159,0.369-0.275,0.602-0.438,1.073
		c-0.042,0.308-0.122,0.527-0.131,0.901c-0.042,0.779,0.116,1.438,0.452,2.021c0.687,1.157,1.825,1.601,2.712,1.769
		c0.92,0.169,1.727,0.062,2.338-0.121c0.64-0.158,1.051-0.485,1.303-0.695c0.233-0.238,0.359-0.368,0.359-0.368
		s-0.149,0.089-0.43,0.266c-0.294,0.145-0.732,0.304-1.316,0.359c-0.578,0.061-1.302,0.01-2.03-0.271
		c-0.714-0.285-1.451-0.812-1.755-1.545c-0.145-0.364-0.172-0.808-0.111-1.157c0.019-0.196,0.145-0.523,0.21-0.793
		c0.079-0.061,0.224-0.359,0.312-0.532c0.499-0.756,1.382-1.064,2.492-1.018c2.203,0.14,4.756,1.423,6.497,3.146
		c0.242,0.2,0.4,0.438,0.602,0.662c0.178,0.225,0.257,0.364,0.42,0.584l0.196,0.49c0.009,0.032,0.103,0.266,0.056,0.135l0.042,0.191
		c0.07,0.247,0.07,0.495,0.079,0.752c-0.041,1.003-0.551,2.086-1.292,3.028c-1.498,1.909-3.444,3.449-4.962,4.929
		c-0.774,0.728-1.46,1.461-1.983,2.193c-0.527,0.719-0.882,1.559-0.756,2.272c0.112,0.715,0.616,1.041,0.845,1.246
		c0.285,0.183,0.425,0.271,0.425,0.271s-0.112-0.126-0.336-0.364c-0.191-0.257-0.499-0.658-0.48-1.194
		C279.679,289.261,281.167,288.165,282.806,286.96z M255.587,309.563c-0.448-1.045-1.066-1.927-1.523-2.697
		c-0.432-0.808-1.013-1.293-1.414-1.792c-0.843-0.934-1.363-1.447-1.363-1.447s0.133,0.724,0.453,1.941
		c0.408,1.219,0.67,2.95,0.976,4.836c0.019,0.998,0.245,2.034,0.168,3.126c0.014,1.088-0.091,2.203-0.301,3.305
		c-0.128,1.115-0.574,2.189-0.98,3.211c-0.406,1.051-1.062,1.946-1.743,2.796l-1.139,1.176l-1.337,0.938
		c-0.98,0.457-1.918,1.097-3.012,1.302c-2.107,0.7-4.353,0.672-6.34,0.7c-1.956-0.215-3.704-0.317-4.898-0.606
		c-1.23-0.201-1.979-0.275-1.979-0.275s0.543,0.472,1.57,1.236c0.99,0.831,2.597,1.713,4.69,2.591
		c1.078,0.308,2.282,0.709,3.598,0.896c1.328,0.079,2.782,0.317,4.287-0.023c1.505-0.149,3.087-0.667,4.553-1.399l2.123-1.358
		l1.853-1.76c1.034-1.354,1.932-2.796,2.471-4.354c0.593-1.517,0.843-3.131,0.871-4.615c0.119-1.513-0.119-2.927-0.411-4.233
		C256.573,311.743,255.957,310.623,255.587,309.563z M261.566,322.715l7.474,9.838l7.47-9.838l-7.47-9.834L261.566,322.715z
		 M199.277,336.068c-2.693-1.055-5.525-2.45-7.953-4.514c-2.429-2.044-4.258-4.839-4.957-8.078c-0.616-3.169-0.34-7.159,1.223-9.913
		c1.519-3.104,4.25-5.708,7.423-7.215c3.139-1.592,6.8-1.965,9.959-0.887c3.125,1.124,5.582,3.579,6.737,6.674
		c1.206,3.015,1.015,6.365-0.516,8.778c-1.62,2.287-4.483,3.841-7.178,3.883c-2.523,0.159-5.036-0.924-6.322-2.642
		c-1.367-1.713-1.377-3.878-0.693-5.344c0.667-1.493,1.692-2.455,2.413-3.02c0.771-0.546,1.172-0.83,1.172-0.83
		s-0.451,0.224-1.295,0.639c-0.798,0.472-2.079,1.219-3.031,2.843c-0.98,1.554-1.342,4.224,0.124,6.59
		c1.368,2.356,4.289,4.163,7.778,4.14c3.283,0.111,6.919-1.34,9.523-4.452c2.453-3.229,3.001-7.883,1.52-11.854
		c-1.284-3.972-4.588-7.738-8.884-9.255c-4.301-1.536-9.176-1.036-13.161,0.929c-3.99,1.988-7.316,5.241-9.234,9.213
		c-0.502,0.947-0.873,2.091-1.218,3.188l-0.301,1.433c-0.052,0.341-0.091,0.257-0.143,0.938l-0.021,0.788
		c0.004,1.055-0.088,2.091,0.012,3.132c0.166,1.046,0.329,2.077,0.49,3.099c0.976,4.121,3.692,7.496,6.658,9.624
		c2.992,2.188,6.179,3.449,9.115,4.363c5.935,1.718,11.05,1.82,14.552,1.891c3.517-0.019,5.5-0.252,5.5-0.252
		s-2.011-0.145-5.458-0.564C209.675,338.985,204.747,338.042,199.277,336.068z"/>
</g>
</svg>